<svg width="22" height="18" viewBox="0 0 22 18" fill="none" xmlns="http://www.w3.org/2000/svg">
<path d="M13 4.00004H15.3373C15.5818 4.00004 15.7041 4.00004 15.8192 4.02767C15.9213 4.05216 16.0188 4.09257 16.1083 4.1474C16.2092 4.20924 16.2957 4.29572 16.4686 4.46867L20.5314 8.53141C20.7043 8.70436 20.7908 8.79084 20.8526 8.89175C20.9075 8.98123 20.9479 9.07877 20.9724 9.18081C21 9.29589 21 9.41819 21 9.66278V12.5C21 12.966 21 13.199 20.9239 13.3827C20.8224 13.6277 20.6277 13.8224 20.3827 13.9239C20.1989 14 19.9659 14 19.5 14M14.5 14H13M13 14V4.20004C13 3.07993 13 2.51988 12.782 2.09206C12.5903 1.71573 12.2843 1.40977 11.908 1.21803C11.4802 1.00004 10.9201 1.00004 9.8 1.00004H4.2C3.0799 1.00004 2.51984 1.00004 2.09202 1.21803C1.71569 1.40977 1.40973 1.71573 1.21799 2.09206C1 2.51988 1 3.07993 1 4.20004V12C1 13.1046 1.89543 14 3 14M13 14H9M9 14C9 15.6569 7.65685 17 6 17C4.34315 17 3 15.6569 3 14M9 14C9 12.3432 7.65685 11 6 11C4.34315 11 3 12.3432 3 14M19.5 14.5C19.5 15.8807 18.3807 17 17 17C15.6193 17 14.5 15.8807 14.5 14.5C14.5 13.1193 15.6193 12 17 12C18.3807 12 19.5 13.1193 19.5 14.5Z" stroke="black" stroke-width="2" stroke-linecap="round" stroke-linejoin="round"/>
</svg>
