<svg width="24" height="18" viewBox="0 0 24 18" fill="none" xmlns="http://www.w3.org/2000/svg">
<path d="M9 8.04249L12 10.1439L22 3.13919M16 2.43872H7.8C6.11984 2.43872 5.27976 2.43872 4.63803 2.66776C4.07354 2.86923 3.6146 3.19071 3.32698 3.58611C3 4.03563 3 4.62408 3 5.80098V11.6849C3 12.8618 3 13.4503 3.32698 13.8998C3.6146 14.2952 4.07354 14.6167 4.63803 14.8182C5.27976 15.0472 6.11984 15.0472 7.8 15.0472H16.2C17.8802 15.0472 18.7202 15.0472 19.362 14.8182C19.9265 14.6167 20.3854 14.2952 20.673 13.8998C21 13.4503 21 12.8618 21 11.6849V8.74297" stroke="black" stroke-width="2" stroke-linecap="round" stroke-linejoin="round"/>
</svg>
