<svg width="25" height="25" viewBox="0 0 25 25" fill="none" xmlns="http://www.w3.org/2000/svg">
<g clip-path="url(#clip0_1_3395)">
<path d="M12.5 24.9999C19.4036 24.9999 25 19.4034 25 12.4999C25 5.59632 19.4036 -0.00012207 12.5 -0.00012207C5.59644 -0.00012207 0 5.59632 0 12.4999C0 19.4034 5.59644 24.9999 12.5 24.9999Z" fill="#3C5A9A"/>
<path d="M16.5644 3.83679H13.7954C12.1521 3.83679 10.3244 4.52792 10.3244 6.90988C10.3324 7.73985 10.3244 8.53471 10.3244 9.42928H8.42334V12.4544H10.3832V21.1631H13.9845V12.3969H16.3615L16.5766 9.42079H13.9225C13.9225 9.42079 13.9284 8.09689 13.9225 7.71243C13.9225 6.77113 14.9019 6.82503 14.9608 6.82503C15.4269 6.82503 16.3332 6.82639 16.5658 6.82503V3.83679H16.5644Z" fill="white"/>
</g>
<defs>
<clipPath id="clip0_1_3395">
<rect width="25" height="25" fill="white"/>
</clipPath>
</defs>
</svg>
