<svg width="25" height="25" viewBox="0 0 25 25" fill="none" xmlns="http://www.w3.org/2000/svg">
<g clip-path="url(#clip0_1_3388)">
<path d="M24.3919 12.7338C24.3919 11.7095 24.3088 10.9621 24.1292 10.187H12.4454V14.8099H19.3035C19.1653 15.9588 18.4186 17.6889 16.7594 18.8515L16.7361 19.0063L20.4303 21.8711L20.6862 21.8966C23.0368 19.7236 24.3919 16.5262 24.3919 12.7338Z" fill="#4285F4"/>
<path d="M12.4455 24.914C15.8054 24.914 18.626 23.8066 20.6863 21.8966L16.7594 18.8515C15.7086 19.5851 14.2982 20.0972 12.4455 20.0972C9.15469 20.0972 6.36168 17.9242 5.36604 14.9207L5.22011 14.9331L1.37885 17.9089L1.32861 18.0487C3.37497 22.118 7.57836 24.914 12.4455 24.914Z" fill="#34A853"/>
<path d="M5.36612 14.9207C5.10341 14.1456 4.95138 13.315 4.95138 12.4569C4.95138 11.5987 5.10341 10.7683 5.3523 9.99319L5.34534 9.82811L1.45595 6.80444L1.32869 6.86504C0.485289 8.55368 0.00134277 10.45 0.00134277 12.4569C0.00134277 14.4639 0.485289 16.3601 1.32869 18.0487L5.36612 14.9207Z" fill="#FBBC05"/>
<path d="M12.4455 4.81658C14.7822 4.81658 16.3584 5.82698 17.2572 6.67135L20.7692 3.23871C18.6123 1.23175 15.8053 -0.00012207 12.4455 -0.00012207C7.57835 -0.00012207 3.37497 2.79577 1.32861 6.86505L5.35222 9.9932C6.36167 6.98967 9.15468 4.81658 12.4455 4.81658Z" fill="#EB4335"/>
</g>
<defs>
<clipPath id="clip0_1_3388">
<rect width="24.4048" height="25" fill="white"/>
</clipPath>
</defs>
</svg>
