<svg width="19" height="18" viewBox="0 0 19 18" fill="none" xmlns="http://www.w3.org/2000/svg">
<path d="M13.5667 0.857178C12.6985 0.857329 11.8461 1.08854 11.0968 1.52708C10.3476 1.96561 9.72857 2.59566 9.30334 3.35253C8.878 2.59548 8.25878 1.96532 7.50931 1.52677C6.75983 1.08823 5.90712 0.857114 5.03876 0.857178C3.70885 0.929003 2.45782 1.51078 1.54592 2.48148C0.634019 3.45219 0.131452 4.73709 0.142765 6.06889C0.142765 12.8604 9.30334 17.5985 9.30334 17.5985C9.30334 17.5985 18.4639 12.8628 18.4639 6.06889C18.4752 4.73689 17.9725 3.45182 17.0603 2.48108C16.1482 1.51035 14.8968 0.928702 13.5667 0.857178V0.857178Z" fill="white"/>
</svg>
