<svg width="24" height="24" viewBox="0 0 24 24" fill="none" xmlns="http://www.w3.org/2000/svg">
<path d="M12 16C13.6569 16 15 14.6569 15 13C15 11.3432 13.6569 10 12 10C10.3431 10 9 11.3432 9 13C9 14.6569 10.3431 16 12 16Z" stroke="black" stroke-width="2" stroke-linecap="round" stroke-linejoin="round"/>
<path d="M3 10.5651C3 9.99072 3 9.70354 3.07403 9.43907C3.1396 9.20481 3.24737 8.98447 3.39203 8.78888C3.55534 8.56808 3.78202 8.39177 4.23539 8.03915L11.0177 2.76402C11.369 2.49077 11.5447 2.35414 11.7387 2.30162C11.9098 2.25528 12.0902 2.25528 12.2613 2.30162C12.4553 2.35414 12.631 2.49077 12.9823 2.76402L19.7646 8.03915C20.218 8.39177 20.4447 8.56808 20.608 8.78888C20.7526 8.98447 20.8604 9.20481 20.926 9.43907C21 9.70354 21 9.99072 21 10.5651V17.8C21 18.9201 21 19.4802 20.782 19.908C20.5903 20.2843 20.2843 20.5903 19.908 20.782C19.4802 21 18.9201 21 17.8 21H6.2C5.07989 21 4.51984 21 4.09202 20.782C3.71569 20.5903 3.40973 20.2843 3.21799 19.908C3 19.4802 3 18.9201 3 17.8V10.5651Z" stroke="black" stroke-width="2" stroke-linecap="round" stroke-linejoin="round"/>
</svg>
