<svg width="197" height="25" viewBox="0 0 197 25" fill="none" xmlns="http://www.w3.org/2000/svg">
<path d="M2 3.00004H3.30616C3.55218 3.00004 3.67519 3.00004 3.77418 3.04528C3.86142 3.08515 3.93535 3.14926 3.98715 3.22998C4.04593 3.32158 4.06333 3.44336 4.09812 3.6869L4.57143 7.00004M4.57143 7.00004L5.62332 14.7314C5.75681 15.7126 5.82355 16.2031 6.0581 16.5724C6.26478 16.8978 6.56108 17.1565 6.91135 17.3174C7.30886 17.5 7.80394 17.5 8.79411 17.5H17.352C18.2945 17.5 18.7658 17.5 19.151 17.3305C19.4905 17.1809 19.7818 16.9399 19.9923 16.6343C20.2309 16.2877 20.3191 15.8247 20.4955 14.8988L21.8191 7.94973C21.8812 7.62385 21.9122 7.4609 21.8672 7.33354C21.8278 7.22181 21.7499 7.12772 21.6475 7.06806C21.5308 7.00004 21.365 7.00004 21.0332 7.00004H4.57143ZM10 22C10 22.5523 9.55228 23 9 23C8.44772 23 8 22.5523 8 22C8 21.4478 8.44772 21 9 21C9.55228 21 10 21.4478 10 22ZM18 22C18 22.5523 17.5523 23 17 23C16.4477 23 16 22.5523 16 22C16 21.4478 16.4477 21 17 21C17.5523 21 18 21.4478 18 22Z" stroke="black" stroke-width="2" stroke-linecap="round" stroke-linejoin="round"/>
<path d="M23.0493 9.2973C23.0493 12.714 20.3161 15.473 16.9578 15.473C13.5994 15.473 10.8662 12.714 10.8662 9.2973C10.8662 5.88057 13.5994 3.12162 16.9578 3.12162C20.3161 3.12162 23.0493 5.88057 23.0493 9.2973Z" fill="#FF4B4B" stroke="white"/>
<path d="M15.1516 12.6757H16.6276L19.1926 7.09571V6.01571H14.5306V7.19471H17.6986L15.1516 12.6757Z" fill="white"/>
<path d="M193 21C193 19.6045 193 18.9067 192.828 18.3389C192.44 17.0605 191.44 16.0601 190.161 15.6723C189.593 15.5 188.896 15.5 187.5 15.5H182.5C181.104 15.5 180.407 15.5 179.839 15.6723C178.56 16.0601 177.56 17.0605 177.172 18.3389C177 18.9067 177 19.6045 177 21M189.5 7.50004C189.5 9.98532 187.485 12 185 12C182.515 12 180.5 9.98532 180.5 7.50004C180.5 5.01476 182.515 3.00004 185 3.00004C187.485 3.00004 189.5 5.01476 189.5 7.50004Z" stroke="black" stroke-width="2" stroke-linecap="round" stroke-linejoin="round"/>
<path d="M82 7.00004H84.3373C84.5818 7.00004 84.7041 7.00004 84.8192 7.02767C84.9213 7.05216 85.0188 7.09257 85.1083 7.1474C85.2092 7.20924 85.2957 7.29572 85.4686 7.46867L89.5314 11.5314C89.7043 11.7044 89.7908 11.7908 89.8526 11.8918C89.9075 11.9812 89.9479 12.0788 89.9724 12.1808C90 12.2959 90 12.4182 90 12.6628V15.5C90 15.966 90 16.199 89.9239 16.3827C89.8224 16.6277 89.6277 16.8224 89.3827 16.9239C89.1989 17 88.9659 17 88.5 17M83.5 17H82M82 17V7.20004C82 6.07993 82 5.51988 81.782 5.09206C81.5903 4.71573 81.2843 4.40977 80.908 4.21803C80.4802 4.00004 79.9201 4.00004 78.8 4.00004H73.2C72.0799 4.00004 71.5198 4.00004 71.092 4.21803C70.7157 4.40977 70.4097 4.71573 70.218 5.09206C70 5.51988 70 6.07993 70 7.20004V15C70 16.1046 70.8954 17 72 17M82 17H78M78 17C78 18.6569 76.6569 20 75 20C73.3431 20 72 18.6569 72 17M78 17C78 15.3432 76.6569 14 75 14C73.3431 14 72 15.3432 72 17M88.5 17.5C88.5 18.8807 87.3807 20 86 20C84.6193 20 83.5 18.8807 83.5 17.5C83.5 16.1193 84.6193 15 86 15C87.3807 15 88.5 16.1193 88.5 17.5Z" stroke="black" stroke-width="2" stroke-linecap="round" stroke-linejoin="round"/>
</svg>
