<svg width="24" height="24" viewBox="0 0 24 24" fill="none" xmlns="http://www.w3.org/2000/svg">
<path d="M2 2.00004H3.30616C3.55218 2.00004 3.67519 2.00004 3.77418 2.04528C3.86142 2.08515 3.93535 2.14926 3.98715 2.22998C4.04593 2.32158 4.06333 2.44336 4.09812 2.6869L4.57143 6.00004M4.57143 6.00004L5.62332 13.7314C5.75681 14.7126 5.82355 15.2031 6.0581 15.5724C6.26478 15.8978 6.56108 16.1565 6.91135 16.3174C7.30886 16.5 7.80394 16.5 8.79411 16.5H17.352C18.2945 16.5 18.7658 16.5 19.151 16.3305C19.4905 16.1809 19.7818 15.9399 19.9923 15.6343C20.2309 15.2877 20.3191 14.8247 20.4955 13.8988L21.8191 6.94973C21.8812 6.62385 21.9122 6.4609 21.8672 6.33354C21.8278 6.22181 21.7499 6.12772 21.6475 6.06806C21.5308 6.00004 21.365 6.00004 21.0332 6.00004H4.57143ZM10 21C10 21.5523 9.55228 22 9 22C8.44772 22 8 21.5523 8 21C8 20.4478 8.44772 20 9 20C9.55228 20 10 20.4478 10 21ZM18 21C18 21.5523 17.5523 22 17 22C16.4477 22 16 21.5523 16 21C16 20.4478 16.4477 20 17 20C17.5523 20 18 20.4478 18 21Z" stroke="black" stroke-width="2" stroke-linecap="round" stroke-linejoin="round"/>
<path d="M23.0493 8.2973C23.0493 11.714 20.3161 14.473 16.9578 14.473C13.5994 14.473 10.8662 11.714 10.8662 8.2973C10.8662 4.88057 13.5994 2.12162 16.9578 2.12162C20.3161 2.12162 23.0493 4.88057 23.0493 8.2973Z" fill="#FF4B4B" stroke="white"/>
<path d="M15.1516 11.6757H16.6276L19.1926 6.09571V5.01571H14.5306V6.19471H17.6986L15.1516 11.6757Z" fill="white"/>
</svg>
