<svg width="26" height="26" viewBox="0 0 26 26" fill="none" xmlns="http://www.w3.org/2000/svg">
<path d="M26 13C26 20.1796 20.1796 25.9998 13.0002 25.9998C5.82062 25.9998 0 20.1796 0 13C0 5.82037 5.82062 -7.62939e-06 13.0002 -7.62939e-06C20.1796 -7.62939e-06 26 5.82037 26 13Z" fill="url(#paint0_linear_1_1610)"/>
<path d="M5.1121 13.476C5.13532 13.5231 5.27826 13.8112 5.62962 14.1015C5.80505 14.2459 6.03326 14.3891 6.31669 14.4944C6.60012 14.5997 6.93804 14.6664 7.32532 14.6661C7.71015 14.6664 8.04269 14.5997 8.31953 14.4909C8.73588 14.3285 9.01785 14.0743 9.18815 13.8593C9.35992 13.6431 9.42736 13.4664 9.44202 13.4259C9.54122 13.1483 9.39681 12.8429 9.11925 12.7437C8.84168 12.6445 8.53626 12.7889 8.43706 13.0665L8.70339 13.1617L8.44121 13.0552L8.43706 13.0665L8.70339 13.1617L8.44121 13.0552L8.43926 13.0596C8.42655 13.0882 8.35618 13.225 8.19711 13.3474C8.0361 13.4689 7.78883 13.5959 7.32532 13.5986C7.05826 13.5984 6.85252 13.5544 6.68857 13.4936C6.4435 13.4024 6.28737 13.2712 6.18939 13.1652C6.14101 13.1126 6.10803 13.0665 6.0897 13.0381L6.0726 13.0098L6.07137 13.0078L5.87957 13.1099L6.07578 13.0166L6.07137 13.0078L5.87957 13.1099L6.07578 13.0166C5.94872 12.7505 5.63035 12.6376 5.36426 12.7645C5.09818 12.8913 4.98529 13.2099 5.1121 13.476Z" fill="#3C3C44"/>
<path d="M16.2575 13.476C16.2807 13.5234 16.4237 13.8112 16.775 14.1015C16.9505 14.2459 17.1787 14.3891 17.4624 14.4944C17.7455 14.5997 18.0835 14.6664 18.4707 14.6661C18.8558 14.6664 19.1881 14.5997 19.4649 14.4909C19.8813 14.3285 20.1633 14.0743 20.3338 13.8593C20.5053 13.6431 20.5728 13.4664 20.5877 13.4259C20.6869 13.1483 20.5422 12.8429 20.2647 12.7437C19.9871 12.6445 19.6817 12.7889 19.5825 13.0665L19.8488 13.1617L19.5866 13.0552L19.5825 13.0665L19.8488 13.1617L19.5866 13.0552L19.5847 13.0596C19.572 13.0882 19.5016 13.225 19.3425 13.3474C19.1815 13.4689 18.9342 13.5959 18.4707 13.5986C18.2037 13.5984 17.9979 13.5544 17.834 13.4936C17.5889 13.4024 17.4328 13.271 17.3348 13.1652C17.2862 13.1124 17.2534 13.0665 17.2349 13.0379L17.2178 13.0098L17.2165 13.0078L17.0247 13.1099L17.2209 13.0164L17.2165 13.0078L17.0247 13.1099L17.2209 13.0164C17.0939 12.7503 16.7753 12.6376 16.5094 12.7645C16.2433 12.8915 16.1305 13.2101 16.2575 13.476Z" fill="#3C3C44"/>
<path d="M17.2973 19.873C17.2751 19.8202 17.0351 19.2497 16.3668 18.6786C16.0331 18.394 15.5923 18.112 15.0289 17.9038C14.4657 17.6954 13.7818 17.5613 12.9666 17.5615C12.1515 17.5613 11.4708 17.6954 10.9127 17.9048C10.0744 18.2181 9.51952 18.6997 9.18136 19.1067C8.84221 19.5143 8.71345 19.8461 8.69757 19.8876C8.59422 20.1637 8.73446 20.4711 9.01056 20.5745C9.28667 20.6778 9.59405 20.5376 9.6974 20.2615L9.46332 20.174L9.69544 20.2666L9.6974 20.2615L9.46332 20.174L9.69544 20.2666C9.69618 20.2634 9.86453 19.849 10.3439 19.4468C10.5841 19.245 10.9022 19.0434 11.3281 18.8893C11.754 18.7356 12.2893 18.6293 12.9666 18.629C13.6657 18.6293 14.2186 18.7424 14.6587 18.9051C15.3177 19.1495 15.7306 19.5062 15.9845 19.798C16.1108 19.9438 16.1961 20.0731 16.2476 20.1613C16.2735 20.2053 16.2909 20.2392 16.3006 20.2595L16.3099 20.2793L16.3107 20.2808L16.5965 20.1588L16.3087 20.2761L16.3107 20.2808L16.5965 20.1588L16.3087 20.2761C16.4201 20.5491 16.7316 20.68 17.0046 20.5688C17.2775 20.4574 17.4085 20.1459 17.2973 19.873Z" fill="#3C3C44"/>
<defs>
<linearGradient id="paint0_linear_1_1610" x1="24.2603" y1="6.4989" x2="1.74007" y2="19.501" gradientUnits="userSpaceOnUse">
<stop stop-color="#F3B445"/>
<stop offset="0.360925" stop-color="#F3B445"/>
<stop offset="1" stop-color="#F7954B"/>
</linearGradient>
</defs>
</svg>
