<svg width="24" height="24" viewBox="0 0 24 24" fill="none" xmlns="http://www.w3.org/2000/svg">
<path d="M20 21C20 19.6045 20 18.9067 19.8278 18.3389C19.44 17.0605 18.4395 16.0601 17.1611 15.6723C16.5933 15.5 15.8956 15.5 14.5 15.5H9.5C8.10444 15.5 7.40665 15.5 6.83886 15.6723C5.56045 16.0601 4.56004 17.0605 4.17224 18.3389C4 18.9067 4 19.6045 4 21M16.5 7.50004C16.5 9.98532 14.4853 12 12 12C9.51472 12 7.5 9.98532 7.5 7.50004C7.5 5.01476 9.51472 3.00004 12 3.00004C14.4853 3.00004 16.5 5.01476 16.5 7.50004Z" stroke="black" stroke-width="2" stroke-linecap="round" stroke-linejoin="round"/>
</svg>
